<?xml version="1.0" encoding="iso-8859-1"?>
<!-- Generator: Adobe Illustrator 19.0.0, SVG Export Plug-In . SVG Version: 6.00 Build 0)  -->
<svg version="1.1" id="Layer_1" xmlns="http://www.w3.org/2000/svg" xmlns:xlink="http://www.w3.org/1999/xlink" x="0px" y="0px"
	 viewBox="0 0 512 512" style="enable-background:new 0 0 512 512;" xml:space="preserve">
<path style="fill:#F5DC48;" d="M339.478,512H105.739c-27.619,0-50.087-22.468-50.087-50.087V50.087C55.652,22.468,78.12,0,105.739,0
	h300.522c27.619,0,50.087,22.468,50.087,50.087V395.13C456.348,459.576,403.919,512,339.478,512z"/>
<path style="fill:#EDBA43;" d="M406.261,0H256v512h83.478c64.441,0,116.87-52.424,116.87-116.87V50.087
	C456.348,22.468,433.88,0,406.261,0z"/>
<path style="fill:#7F8189;" d="M372.87,278.261H139.13c-9.223,0-16.696-7.479-16.696-16.696V83.478
	c0-9.223,7.473-16.696,16.696-16.696H372.87c9.223,0,16.696,7.473,16.696,16.696v178.087
	C389.565,270.782,382.092,278.261,372.87,278.261z"/>
<path style="fill:#5D5F66;" d="M205.913,345.043h-16.696v-16.696c0-9.217-7.473-16.696-16.696-16.696s-16.696,7.479-16.696,16.696
	v16.696H139.13c-9.223,0-16.696,7.479-16.696,16.696c0,9.217,7.473,16.696,16.696,16.696h16.696v16.696
	c0,9.217,7.473,16.696,16.696,16.696s16.696-7.479,16.696-16.696v-16.696h16.696c9.223,0,16.696-7.479,16.696-16.696
	C222.609,352.522,215.136,345.043,205.913,345.043z"/>
<g>
	<circle style="fill:#BA3049;" cx="339.478" cy="328.348" r="16.696"/>
	<circle style="fill:#BA3049;" cx="339.478" cy="395.13" r="16.696"/>
	<circle style="fill:#BA3049;" cx="372.87" cy="361.739" r="16.696"/>
	<circle style="fill:#BA3049;" cx="306.087" cy="361.739" r="16.696"/>
</g>
<path style="fill:#5D5F66;" d="M272.696,445.217h-33.391c-9.223,0-16.696-7.479-16.696-16.696c0-9.217,7.473-16.696,16.696-16.696
	h33.391c9.223,0,16.696,7.479,16.696,16.696C289.391,437.739,281.918,445.217,272.696,445.217z"/>
<path style="fill:#55575C;" d="M272.696,411.826H256v33.391h16.696c9.223,0,16.696-7.479,16.696-16.696
	C289.391,419.305,281.918,411.826,272.696,411.826z"/>
<path style="fill:#757880;" d="M372.87,66.783H256v211.478h116.87c9.223,0,16.696-7.479,16.696-16.696V83.478
	C389.565,74.256,382.092,66.783,372.87,66.783z"/>
<g>
</g>
<g>
</g>
<g>
</g>
<g>
</g>
<g>
</g>
<g>
</g>
<g>
</g>
<g>
</g>
<g>
</g>
<g>
</g>
<g>
</g>
<g>
</g>
<g>
</g>
<g>
</g>
<g>
</g>
</svg>
